<mxfile host="app.diagrams.net" modified="2020-10-18T11:37:29.749Z" agent="5.0 (Windows)" etag="EpBuNEHysoGR0tp7GrYD" version="13.8.0" type="github">
  <diagram id="oJnizrFIeqhPIjAvTgun" name="Page-1">
    <mxGraphModel dx="1038" dy="587" grid="1" gridSize="10" guides="1" tooltips="1" connect="1" arrows="1" fold="1" page="1" pageScale="1" pageWidth="827" pageHeight="1169" math="0" shadow="0">
      <root>
        <mxCell id="0" />
        <mxCell id="1" parent="0" />
        <mxCell id="uc8il0LHmGGCFV9w8mgB-1" value="" style="shape=mxgraph.bpmn.shape;html=1;verticalLabelPosition=bottom;labelBackgroundColor=#ffffff;verticalAlign=top;align=center;perimeter=ellipsePerimeter;outlineConnect=0;outline=end;symbol=terminate;shadow=0;" vertex="1" parent="1">
          <mxGeometry x="730" y="120" width="30" height="30" as="geometry" />
        </mxCell>
        <mxCell id="uc8il0LHmGGCFV9w8mgB-2" value="" style="ellipse;whiteSpace=wrap;html=1;aspect=fixed;shadow=0;fillColor=#000000;" vertex="1" parent="1">
          <mxGeometry x="80" y="120" width="30" height="30" as="geometry" />
        </mxCell>
      </root>
    </mxGraphModel>
  </diagram>
</mxfile>
